# xmcd
#
# Track frame offsets:
#	150
#	1517
#	18442
#	22387
#	43520
#	46195
#	65180
#	89742
#	94835
#	118975
#	124535
#	136057
#	166865
#	182895
#	186422
#	203947
#	227875
#	247005
#
# Disc length: 3436 seconds
#
# Revision: 3
# Processed by: cddbd v1.5.2PL0 Copyright (c) Steve Scherf et al.
# Submitted via: audiograbber 1.83.01
#
DISCID=000d6a12
DTITLE=Brotha Lynch Hung - Season Of Da Siccness
DYEAR=1995
DGENRE=Rap
TTITLE0=Cusche Break
TTITLE1=Siccmade
TTITLE2=Dead Man
TTITLE3=Rest In Piss
TTITLE4=Get Da Baby
TTITLE5=Return Of Da Baby
TTITLE6=Locc 2 Da Brain
TTITLE7=Cue Ball
TTITLE8=Liquor Sicc
TTITLE9=40 Break
TTITLE10=Gangsta Shit
TTITLE11=Deep Down
TTITLE12=Dead Man Walking
TTITLE13=781 Redrum
TTITLE14=Season Of Da Sickness
TTITLE15=Welcome 2 Your Own Death
TTITLE16=Real Loccs
TTITLE17=Inhale With Da Devil
EXTD=RapMusicGuide.com
EXTT0=
EXTT1=
EXTT2=
EXTT3=
EXTT4=
EXTT5=
EXTT6=
EXTT7=
EXTT8=
EXTT9=
EXTT10=
EXTT11=
EXTT12=
EXTT13=
EXTT14=
EXTT15=
EXTT16=
EXTT17=
PLAYORDER=
